<?xml version="1.0" standalone="no"?><!DOCTYPE svg PUBLIC "-//W3C//DTD SVG 1.1//EN" "http://www.w3.org/Graphics/SVG/1.1/DTD/svg11.dtd"><svg t="1736320492896" class="icon" viewBox="0 0 1024 1024" version="1.1" xmlns="http://www.w3.org/2000/svg" p-id="17362" xmlns:xlink="http://www.w3.org/1999/xlink" width="200" height="200"><path d="M761.8 113.9c-2.4-4.4-15.1-4.7-15.1-4.7l-39 0.3-17.6-35s-7.4-10.5-13.8-10.4c-6.5 0.1-12 10.6-12 10.6L649 108.3l-35.8 1.6s-11.5-3.6-16.6 2.2c-3.5 4 2.5 15.3 2.5 15.3l34.2 25.8-13.7 41.3s-1.8 11.4 2.3 14.3c4.6 3.2 15.1-2 15.1-2l41.5-24.8 38.6 25s12.2 4.2 17 0.7c4-2.9 0.8-13.6 0.8-13.6l-11-43.1 33-24.5s7.6-7.5 4.9-12.6z m-43.6 22.3l-16.6 12.4 5.6 21.7s1.6 5.4-0.4 6.9c-2.4 1.8-8.6-0.4-8.6-0.4l-19.5-12.6-20.9 12.5s-5.3 2.7-7.6 1c-2.1-1.5-1.2-7.2-1.2-7.2l6.9-20.8-17.2-13s-3-5.7-1.3-7.7c2.6-3 8.3-1.2 8.3-1.2l18-0.8 7.8-17s2.8-5.3 6.1-5.3c3.2-0.1 6.9 5.2 6.9 5.2l8.9 17.6 19.6-0.1s6.4 0.2 7.6 2.4c1.5 2.6-2.4 6.4-2.4 6.4zM380 207.7c4-2.9 0.8-13.6 0.8-13.6L369.7 151l33-24.5s7.6-7.5 4.9-12.6c-2.4-4.4-15.1-4.7-15.1-4.7l-39 0.3-17.6-35s-7.4-10.5-13.8-10.4c-6.5 0.1-12 10.6-12 10.6l-15.4 33.7-35.8 1.6s-11.5-3.6-16.6 2.2c-3.5 4 2.5 15.3 2.5 15.3l34.2 25.8-13.7 41.3s-1.8 11.4 2.3 14.3c4.6 3.2 15.1-2 15.1-2l41.5-24.8 38.6 25c0.2 0 12.4 4.2 17.2 0.6z m-27.4-30.6c-2.4 1.8-8.6-0.4-8.6-0.4l-19.5-12.6-20.9 12.5s-5.3 2.7-7.6 1c-2.1-1.5-1.2-7.2-1.2-7.2l6.9-20.8-17.2-13s-3-5.7-1.3-7.7c2.6-3 8.3-1.2 8.3-1.2l18-0.8 7.8-17s2.8-5.3 6.1-5.3c3.2-0.1 6.9 5.2 6.9 5.2l8.9 17.6 19.6-0.1s6.4 0.2 7.6 2.4c1.3 2.5-2.5 6.3-2.5 6.3l-16.6 12.4 5.6 21.7c0.1 0.1 1.7 5.5-0.3 7z m294.7 67l-77.8 0.5-35.1-75s-14.8-22.4-27.4-22.4c-13 0.1-24 22.7-24 22.7l-30.7 72.2-71.4 3.5s-22.9-7.7-33.1 4.9c-6.9 8.5 5 32.7 5 32.7l68.3 55.3-27.4 88.5s-3.6 24.4 4.6 30.7c9.1 6.9 30.2-4.3 30.2-4.3l82.8-53.2 77.1 53.6s24.3 9 33.9 1.5c8-6.3 1.6-29.3 1.6-29.3l-22.2-92.3 65.9-52.6s15.2-16.1 9.9-26.9c-4.8-9.4-30.2-10.1-30.2-10.1z m-56.9 57.8l-33.2 26.5 11.2 46.5s3.2 11.6-0.8 14.8c-4.8 3.8-17.1-0.7-17.1-0.7l-38.8-27-41.7 26.7s-10.6 5.7-15.2 2.2c-4.1-3.1-2.3-15.4-2.3-15.4l13.8-44.6-34.4-27.9s-6-12.2-2.5-16.5c5.1-6.3 16.7-2.5 16.7-2.5l36-1.7 15.5-36.4s5.5-11.3 12.1-11.4c6.4 0 13.8 11.2 13.8 11.2l17.7 37.8 39.2-0.2s12.8 0.3 15.2 5.1c2.5 5.4-5.2 13.5-5.2 13.5z" fill="#040000" p-id="17363"></path><path d="M762.2 703.8c0 170.8-86.8 172.8-260.5 172.8s-260.5-2-260.5-172.8c0-6.3 0.4-60.2 0.7-110.3-32.9-10.1-61-22.6-84.2-37.6-0.3 58.7-0.6 137.3-0.6 144.7 0 228.5 114.6 259.4 343.7 259.4s343.7-30.9 343.7-259.4c0-7.8-0.4-74.6-0.7-131.7-23.5 12.1-50.9 22.3-82.2 30.5 0.2 48.4 0.6 97.9 0.6 104.4z" fill="#040000" p-id="17364"></path><path d="M816.6 233.2c32.4 66 49 131.6 49 174.1-18.9 38.8-44.9 63.5-77.5 79.1-13.6 6.5-28.4 11.4-44.3 15.1-61.3 14.3-139.3 10.2-231.8 8.9-75.3-1.3-149.5 6.8-214.3-6.4-15.6-3.2-30.7-7.5-45.1-13.6-36.1-15.1-68.1-40.6-94.2-83.1 0-42.4 16.6-108 49-174-88.5 36-132.8 94-132.8 174 0 63.4 27.7 112.9 83.2 148.7 23.2 15 51.3 27.5 84.2 37.6 68.8 21.2 158.8 31.7 270.1 31.7 100.4 0 183.6-8.6 249.4-25.9 31.3-8.2 58.7-18.4 82.2-30.5 70.5-36.3 105.8-90.2 105.8-161.6 0-80.2-44.4-138.2-132.9-174.1z" fill="#040000" p-id="17365"></path></svg>