<?xml version="1.0" standalone="no"?><!DOCTYPE svg PUBLIC "-//W3C//DTD SVG 1.1//EN" "http://www.w3.org/Graphics/SVG/1.1/DTD/svg11.dtd"><svg t="1736320398593" class="icon" viewBox="0 0 1024 1024" version="1.1" xmlns="http://www.w3.org/2000/svg" p-id="11760" xmlns:xlink="http://www.w3.org/1999/xlink" width="200" height="200"><path d="M945.6 822.4c4 4 8.8 8 13.6 12l0.8-0.8c-4-4-8.8-8-14.4-11.2z m-488-668c-0.8-0.8-0.8-1.6-2.4-0.8 0.8 0.8 1.6 1.6 2.4 0.8z m7.2 4.8c-0.8-1.6-1.6-2.4-3.2-2.4 0.8 1.6 1.6 1.6 3.2 2.4z m202.4 271.2c-0.8-3.2-1.6-5.6-3.2-8v1.6c0.8 2.4 1.6 4 2.4 6.4h0.8z m280 390.4c-4-3.2-7.2-6.4-11.2-9.6-0.8-0.8-2.4-1.6-2.4-3.2 0-3.2-1.6-6.4-3.2-8.8-11.2-22.4-26.4-44-43.2-63.2-0.8-0.8-0.8-1.6-1.6-1.6-2.4-2.4-4.8-4.8-6.4-8-6.4-7.2-12-15.2-18.4-22.4-0.8-1.6-2.4-3.2-3.2-4.8-0.8 0-2.4-0.8-2.4-2.4 0-3.2-3.2-4.8-6.4-6.4-4.8-5.6-9.6-12-14.4-17.6-1.6-1.6-2.4-4-4-4.8-1.6-1.6-2.4-3.2-4-4.8l-2.4-4.8s0-0.8-0.8-1.6-0.8-1.6-1.6-2.4c-4-6.4-7.2-12-10.4-18.4 0.8 0 1.6-0.8 3.2-0.8 3.2-2.4 5.6-5.6 8.8-8 4-4 9.6-2.4 12 2.4 8.8 16.8 18.4 34.4 27.2 51.2 1.6 2.4 1.6 4.8 0 7.2-1.6 2.4-4 4.8-4.8 8 0 1.6 0.8 2.4 2.4 2.4l7.2-12c0.8-1.6 0.8-2.4 0-4-10.4-20-21.6-40-32-60-0.8-0.8-1.6-2.4-3.2-2.4-4.8 0-9.6 0-13.6 4-3.2 3.2-6.4 5.6-9.6 8h-0.8c-4-6.4-8.8-12-13.6-17.6 1.6-1.6 2.4-4 3.2-6.4 0.8-2.4 2.4-4.8 0.8-7.2-0.8 0-2.4-0.8-3.2 0 0 2.4-0.8 4-2.4 6.4-2.4-2.4-4-4.8-6.4-7.2h8c0.8-0.8 2.4 0 4-0.8 11.2-1.6 21.6-2.4 32.8-3.2 1.6 0 2.4-0.8 3.2-2.4 3.2-6.4 8-10.4 15.2-8.8 0 0 0.8 0 0.8-0.8l-19.2-9.6s-0.8-0.8-0.8-1.6c-7.2-4.8-13.6-10.4-19.2-16.8-12-12.8-24.8-23.2-40.8-28.8-1.6-0.8-3.2-1.6-5.6-1.6 0-4.8 0-8.8 0.8-13.6 1.6-14.4 4-28.8 5.6-43.2 0-3.2 1.6-7.2-3.2-8.8v0.8c-11.2-3.2-21.6-7.2-32.8-10.4h-4c-16 0.8-32 2.4-48 4 0 0-0.8 0-0.8-0.8-1.6-0.8-3.2-1.6-4-2.4-1.6-1.6-3.2-3.2-4.8-5.6 0-0.8-0.8-0.8-0.8-1.6-0.8-3.2-1.6-6.4-3.2-9.6-1.6-1.6-1.6-4-2.4-5.6-0.8-2.4-1.6-4-2.4-6.4-1.6-4.8-3.2-8.8-4.8-13.6v-1.6c0-5.6 1.6-11.2 2.4-16 0.8-0.8 0.8-2.4 1.6-3.2h0.8v0.8c4 1.6 8 4 12.8 4-0.8-0.8-0.8-1.6-1.6-2.4-3.2-4-6.4-7.2-10.4-11.2l-0.8-0.8c2.4-11.2 3.2-22.4 4.8-34.4 0.8-2.4 0.8-4 3.2-4.8 3.2-0.8 3.2-2.4 1.6-4.8s-2.4-4.8-1.6-8c0-2.4 0.8-5.6 0.8-8 2.4-15.2 4-29.6 6.4-44.8 0.8-4.8-0.8-7.2-4.8-8.8h0.8V264c-5.6-3.2-11.2-7.2-14.4-13.6-1.6-3.2-4.8-4-8-5.6-2.4-1.6-0.8 2.4-2.4 2.4-3.2 2.4-4 0.8-4.8 0.8-2.4-0.8-4-2.4-6.4-2.4-4.8 0.8-9.6 0.8-14.4 1.6 0 0.8 0.8 0.8 0.8 1.6l-1.6-1.6c-4.8-8.8-10.4-18.4-15.2-27.2-0.8-1.6-1.6-3.2-3.2-4.8l-16.8-12c0-5.6-5.6-7.2-9.6-9.6-0.8-0.8-0.8-0.8-1.6 0-1.6 2.4-4 0.8-5.6 0-2.4-1.6-4-0.8-4.8 2.4-5.6 16-11.2 32-17.6 48-1.6 4.8-1.6 8 2.4 11.2v0.8c-3.2 0.8-6.4 0.8-9.6 1.6 4.8 4 8.8 8 12.8 11.2v0.8c-0.8 0-0.8 0-1.6 0.8-16 4.8-30.4 10.4-45.6 15.2-1.6 0.8-2.4 0-4-0.8-8-4.8-16-10.4-24-15.2l-0.8 0.8v-2.4c0-11.2-0.8-22.4-1.6-33.6-0.8-4.8-0.8-10.4-0.8-16-1.6-16-2.4-32-3.2-48 0-4.8-1.6-7.2-5.6-8.8v0.8c0.8 0.8 0.8 0.8 0.8 1.6-0.8-0.8-1.6-0.8-2.4-1.6h-0.8c0.8 0.8 1.6 0.8 2.4 0.8v-0.8c-0.8-2.4-1.6-2.4-3.2-2.4l0.8 0.8h-0.8c-0.8-0.8-1.6-1.6-3.2-2.4-0.8-1.6-2.4-1.6-3.2-2.4-0.8 0-1.6-0.8-2.4-0.8-3.2-3.2-5.6-2.4-8 0.8l-38.4 40.8c-0.8 1.6-2.4 2.4-4.8 2.4l-40.8 2.4c-2.4 0-3.2 0.8-4 3.2-3.2 9.6-5.6 19.2-8.8 28.8-0.8 4.8-4 5.6-8 2.4-1.6-0.8-2.4-2.4-4-2.4-3.2 0-4.8-1.6-7.2-3.2-0.8-0.8-2.4-1.6-3.2-2.4-2.4-0.8-3.2-0.8-4 1.6-1.6 4.8-0.8 7.2 3.2 10.4 5.6 4.8 10.4 8 15.2 12.8-0.8 0-1.6-0.8-2.4-0.8-1.6 0-3.2-0.8-4.8-1.6-8.8 2.4-17.6 6.4-25.6 10.4v0.8c1.6 0.8 2.4 2.4 4 3.2-0.8-0.8-2.4-0.8-3.2-1.6-2.4-2.4-4.8-4-7.2-5.6-18.4-9.6-36-20-55.2-28-0.8-0.8-3.2-0.8-3.2 0-1.6 2.4-4 1.6-5.6 2.4-3.2 1.6-7.2 2.4-9.6 6.4v-0.8 1.6c0 4 0.8 8.8 3.2 11.2 4.8 7.2 10.4 13.6 15.2 20 0.8 0.8 2.4 1.6 2.4 3.2l2.4 2.4c2.4 2.4 3.2 3.2 3.2 4l-22.4-16c-0.8-0.8-1.6-2.4-2.4-3.2-7.2-8.8-16-16-26.4-20.8 0.8 1.6 0.8 3.2 1.6 4 0 0 0.8 0 0.8 0.8H208c7.2 14.4 15.2 28.8 23.2 44-1.6-0.8-1.6-1.6-2.4-1.6-6.4-4-12.8-8.8-18.4-14.4-0.8-0.8-1.6-2.4-3.2-0.8-0.8 0.8-1.6 1.6 0 3.2 0.8 0.8 1.6 1.6 0.8 2.4-1.6 3.2-0.8 4.8 1.6 6.4 1.6 0.8 2.4 2.4 0.8 4.8-0.8 1.6-1.6 2.4-4 2.4-5.6-0.8-10.4-0.8-16-1.6-16.8-1.6-34.4-3.2-51.2-4.8-2.4-0.8-4 0-5.6 1.6l-19.2 16.8c-12.8 12-26.4 24.8-40 36.8-0.8 0.8-3.2 1.6-1.6 3.2 2.4 3.2 5.6 6.4 8.8 9.6 1.6 1.6 3.2 3.2 5.6 3.2 9.6 1.6 20 2.4 29.6 4 15.2 1.6 31.2 4 47.2 5.6 0.8-0.8 0.8-0.8 0.8-1.6v0.8c-5.6 15.2-10.4 29.6-16 44.8-0.8 1.6-1.6 4 0.8 5.6 2.4 2.4 1.6 4-0.8 5.6-20.8 19.2-42.4 38.4-64 57.6-1.6 0.8-1.6 2.4-0.8 4 1.6 2.4 2.4 5.6 3.2 8.8 0.8 2.4 2.4 4.8 4 6.4l0.8 2.4v0.8c0.8 0.8 1.6 0.8 2.4 1.6l11.2 11.2 2.4 2.4c0.8 0.8 1.6 1.6 3.2 1.6 11.2 0.8 22.4 2.4 33.6 3.2 9.6 0.8 18.4 1.6 28 2.4 12.8 1.6 24.8 2.4 37.6 4l28.8 2.4c13.6 1.6 27.2 2.4 40.8 4 0.8 0.8 2.4 1.6 4 1.6l15.2 15.2c5.6 6.4 12.8 11.2 20.8 14.4 0.8-3.2-1.6-4.8-1.6-7.2 2.4 1.6 3.2 3.2 4.8 4 2.4 4 6.4 6.4 11.2 7.2 2.4 0 2.4-0.8 1.6-2.4-0.8-4-4-7.2-7.2-10.4l0.8-0.8c0.8-1.6-0.8-3.2-1.6-4-2.4-2.4-4.8-5.6-7.2-8-3.2-3.2-4-4-0.8-5.6 4 0 7.2 0.8 11.2 0.8 1.6 0.8 2.4 0.8 4 1.6 4.8 4.8 10.4 8 16.8 9.6 0.8-1.6-0.8-2.4 0-3.2l1.6 1.6c14.4 14.4 31.2 25.6 46.4 38.4v-0.8h0.8c0 0.8 0.8 0.8 1.6 1.6 8 4.8 16.8 9.6 25.6 13.6 4.8 1.6 8 4 10.4 7.2l7.2 28 65.6 3.2 7.2 0.8c3.2 0.8 7.2 0 10.4 0.8h5.6c2.4 0 4 0 6.4 0.8h0.8c0.8 0 1.6 0 2.4 0.8 5.6 0 10.4 0.8 16 0.8 0.8 0 1.6 0.8 2.4 0.8-0.8 0-1.6-0.8-2.4-0.8l2.4 2.4c0.8 0.8 1.6 2.4 3.2 2.4 1.6-0.8 2.4-0.8 4-1.6 7.2 5.6 13.6 12.8 20.8 18.4 0 0.8 0.8 0.8 0.8 1.6 3.2 3.2 7.2 4 10.4 5.6 1.6 0.8 3.2 1.6 4.8 0l0.8-0.8c3.2-0.8 5.6-4 5.6-8 0.8-1.6 0.8-3.2 0.8-4.8-0.8-4.8-4-8-7.2-11.2 1.6 0 3.2 0.8 4 1.6 5.6 4.8 12 4 18.4 4.8l-0.8-0.8c0.8 0 0.8 0.8 1.6 0.8 4 1.6 8.8 0.8 12.8 0.8 0.8 0 1.6-0.8 2.4-0.8h0.8c0.8 0 1.6 0 2.4 0.8h10.4c1.6 0 4 0.8 5.6 0.8 0.8 0 0.8 0 1.6 0.8 2.4 1.6 4 4 6.4 5.6 8.8 7.2 16 14.4 24 20.8 3.2 3.2 4.8 5.6 4.8 10.4 0 4 0.8 8 0.8 12 1.6-0.8 2.4-2.4 3.2-3.2 0.8-0.8 0.8-0.8 0.8-1.6v1.6c0 1.6 0.8 3.2 1.6 4.8 0.8 0 0.8 0.8 1.6 0.8h-1.6c-6.4 1.6-8.8 4.8-8 9.6 0.8 8 4.8 14.4 11.2 19.2 4.8 3.2 9.6 1.6 12.8-2.4 1.6-2.4 1.6-4.8 1.6-7.2 4 2.4 7.2 3.2 11.2 0.8 0 0.8 0 0.8 0.8 0.8 1.6 2.4 2.4 2.4 4.8 0.8 2.4-1.6 0-2.4-0.8-4 0-0.8-0.8-1.6-1.6-2.4l0.8-0.8-0.8-0.8c9.6 5.6 18.4 12 28 18.4v-4c0-1.6-0.8-4 0.8-4.8 1.6-0.8 2.4 0.8 4 1.6 24 14.4 48 28 72.8 40.8 0.8 0.8 1.6 1.6 3.2 1.6v-1.6c0 0.8 0.8 0.8 0.8 1.6 1.6 0.8 2.4 1.6 3.2 2.4 23.2 13.6 48 23.2 72.8 32 7.2 2.4 12.8 4.8 17.6 9.6 0.8 1.6 2.4 2.4 4 3.2 0.8 0.8 0.8 0 0.8-0.8zM76 344.8l-0.8-0.8h1.6c2.4 3.2 5.6 5.6 8.8 6.4-3.2-0.8-7.2-2.4-9.6-5.6z m120 20.8z m215.2-40c2.4 0 4 0.8 6.4 0.8-1.6 0-4-0.8-6.4-0.8z m27.2 224h1.6c-0.8 0.8-1.6 0-1.6 0h-0.8 0.8z m18.4 20c-2.4 4-5.6 8-8 12-2.4 3.2-2.4 3.2-4.8 0-4-6.4-8.8-13.6-12.8-20.8 0-0.8-0.8-2.4-1.6-3.2 8 2.4 16 5.6 23.2 8 1.6 0 3.2 0.8 4.8 0.8-0.8 0.8-0.8 1.6-0.8 3.2z m2.4-10.4c0-0.8 0-0.8 0 0z m0 6.4v-0.8 0.8z m22.4-262.4v-1.6c0-5.6 0-10.4-0.8-16 0 3.2 0.8 6.4 0.8 9.6v8z m62.4 336v-0.8 0.8z m0-9.6c2.4 0.8 4 0.8 7.2 1.6-2.4 0-4.8 0-7.2-1.6z m24 15.2z m-4-74.4c-0.8-0.8-0.8-0.8-0.8-1.6 4 4 8 7.2 12.8 11.2l-12-9.6z m35.2-11.2s-0.8-0.8 0 0l0.8 0.8-0.8-0.8z m3.2 3.2l-0.8-0.8c0.8 0 0.8 0 0.8 0.8z m12-10.4z m4.8-4c0.8 0 0.8-0.8 0 0 0.8-0.8 0.8-0.8 0 0 0.8 0 0.8 0 0 0z m45.6-24.8z m10.4-1.6z m0-12z m9.6 12z m22.4 173.6z m21.6 24c0-0.8-0.8-0.8-0.8 0v-1.6c0.8 0.8 1.6 1.6 1.6 2.4l-0.8-0.8z m30.4-204.8s0.8-0.8 0 0c0.8 0.8 0 0.8 0 1.6v-1.6z m-0.8 8.8c0 0.8 0 0.8 0 0v0z m0 64c0.8 0 0.8 0 1.6 0.8-0.8-0.8-0.8-0.8-1.6-0.8z m124.8 146.4h0.8c0 0.8 0 0.8-0.8 0zM249.6 271.2c0.8 1.6 1.6 2.4 2.4 3.2 0-2.4-0.8-2.4-2.4-3.2z m715.2 566.4c0-0.8 0-0.8 0 0-1.6-1.6-2.4-3.2-4.8-4 0.8 2.4 1.6 3.2 3.2 4h1.6c0.8 1.6 1.6 2.4 3.2 4-0.8-2.4-1.6-3.2-3.2-4zM666.4 430.4c0.8 1.6 0.8 4 2.4 5.6 0-2.4-0.8-4-2.4-5.6z" p-id="11761" data-spm-anchor-id="a313x.search_index.0.i4.66783a81R4RXEU" class="selected" fill="#2c2c2c"></path></svg>